solid Paralelipipedo
   facet normal -1.000000e+00 0.000000e+00 -0.000000e+00
      outer loop
         vertex 0.000000e+00 0.000000e+00 -6.705523e-07
         vertex 0.000000e+00 3.500000e+01 -6.705523e-07
         vertex 0.000000e+00 0.000000e+00 -3.000000e+01
      endloop
   endfacet
   facet normal -1.000000e+00 0.000000e+00 0.000000e+00
      outer loop
         vertex 0.000000e+00 0.000000e+00 -3.000000e+01
         vertex 0.000000e+00 3.500000e+01 -6.705523e-07
         vertex 0.000000e+00 3.500000e+01 -3.000000e+01
      endloop
   endfacet
   facet normal 0.000000e+00 -1.000000e+00 0.000000e+00
      outer loop
         vertex 1.725000e+02 0.000000e+00 -6.705523e-07
         vertex 0.000000e+00 0.000000e+00 -6.705523e-07
         vertex 1.725000e+02 0.000000e+00 -3.000000e+01
      endloop
   endfacet
   facet normal 0.000000e+00 -1.000000e+00 0.000000e+00
      outer loop
         vertex 1.725000e+02 0.000000e+00 -3.000000e+01
         vertex 0.000000e+00 0.000000e+00 -6.705523e-07
         vertex 0.000000e+00 0.000000e+00 -3.000000e+01
      endloop
   endfacet
   facet normal 1.000000e+00 0.000000e+00 0.000000e+00
      outer loop
         vertex 1.725000e+02 3.500000e+01 -6.705523e-07
         vertex 1.725000e+02 0.000000e+00 -6.705523e-07
         vertex 1.725000e+02 3.500000e+01 -3.000000e+01
      endloop
   endfacet
   facet normal 1.000000e+00 -0.000000e+00 0.000000e+00
      outer loop
         vertex 1.725000e+02 3.500000e+01 -3.000000e+01
         vertex 1.725000e+02 0.000000e+00 -6.705523e-07
         vertex 1.725000e+02 0.000000e+00 -3.000000e+01
      endloop
   endfacet
   facet normal 0.000000e+00 1.000000e+00 0.000000e+00
      outer loop
         vertex 0.000000e+00 3.500000e+01 -6.705523e-07
         vertex 1.725000e+02 3.500000e+01 -6.705523e-07
         vertex 0.000000e+00 3.500000e+01 -3.000000e+01
      endloop
   endfacet
   facet normal 0.000000e+00 1.000000e+00 0.000000e+00
      outer loop
         vertex 0.000000e+00 3.500000e+01 -3.000000e+01
         vertex 1.725000e+02 3.500000e+01 -6.705523e-07
         vertex 1.725000e+02 3.500000e+01 -3.000000e+01
      endloop
   endfacet
   facet normal 0.000000e+00 0.000000e+00 1.000000e+00
      outer loop
         vertex 1.363371e+02 1.430504e+01 -6.705523e-07
         vertex 0.000000e+00 0.000000e+00 -6.705523e-07
         vertex 1.369096e+02 1.415165e+01 -6.705523e-07
      endloop
   endfacet
   facet normal 0.000000e+00 0.000000e+00 1.000000e+00
      outer loop
         vertex 1.369096e+02 1.415165e+01 -6.705523e-07
         vertex 0.000000e+00 0.000000e+00 -6.705523e-07
         vertex 1.725000e+02 0.000000e+00 -6.705523e-07
      endloop
   endfacet
   facet normal 0.000000e+00 0.000000e+00 1.000000e+00
      outer loop
         vertex 3.819495e+01 1.633713e+01 -6.705523e-07
         vertex 3.794449e+01 1.580000e+01 -6.705523e-07
         vertex 1.348954e+02 1.531452e+01 -6.705523e-07
      endloop
   endfacet
   facet normal 0.000000e+00 -0.000000e+00 1.000000e+00
      outer loop
         vertex 3.180505e+01 1.866287e+01 -6.705523e-07
         vertex 3.205551e+01 1.920000e+01 -6.705523e-07
         vertex 0.000000e+00 3.500000e+01 -6.705523e-07
      endloop
   endfacet
   facet normal 0.000000e+00 -0.000000e+00 1.000000e+00
      outer loop
         vertex 1.363371e+02 1.430504e+01 -6.705523e-07
         vertex 1.358000e+02 1.455551e+01 -6.705523e-07
         vertex 0.000000e+00 0.000000e+00 -6.705523e-07
      endloop
   endfacet
   facet normal 0.000000e+00 -0.000000e+00 1.000000e+00
      outer loop
         vertex 0.000000e+00 0.000000e+00 -6.705523e-07
         vertex 1.358000e+02 1.455551e+01 -6.705523e-07
         vertex 1.353145e+02 1.489545e+01 -6.705523e-07
      endloop
   endfacet
   facet normal 0.000000e+00 -0.000000e+00 1.000000e+00
      outer loop
         vertex 0.000000e+00 0.000000e+00 -6.705523e-07
         vertex 1.353145e+02 1.489545e+01 -6.705523e-07
         vertex 1.348954e+02 1.531452e+01 -6.705523e-07
      endloop
   endfacet
   facet normal 0.000000e+00 -0.000000e+00 1.000000e+00
      outer loop
         vertex 3.670000e+01 2.044449e+01 -6.705523e-07
         vertex 3.718548e+01 2.010455e+01 -6.705523e-07
         vertex 1.341517e+02 1.690960e+01 -6.705523e-07
      endloop
   endfacet
   facet normal 0.000000e+00 -0.000000e+00 1.000000e+00
      outer loop
         vertex 3.440960e+01 1.415165e+01 -6.705523e-07
         vertex 3.383713e+01 1.430504e+01 -6.705523e-07
         vertex 0.000000e+00 0.000000e+00 -6.705523e-07
      endloop
   endfacet
   facet normal 0.000000e+00 -0.000000e+00 1.000000e+00
      outer loop
         vertex 3.239545e+01 1.531452e+01 -6.705523e-07
         vertex 3.205551e+01 1.580000e+01 -6.705523e-07
         vertex 0.000000e+00 0.000000e+00 -6.705523e-07
      endloop
   endfacet
   facet normal 0.000000e+00 -0.000000e+00 1.000000e+00
      outer loop
         vertex 0.000000e+00 0.000000e+00 -6.705523e-07
         vertex 3.205551e+01 1.580000e+01 -6.705523e-07
         vertex 3.180505e+01 1.633713e+01 -6.705523e-07
      endloop
   endfacet
   facet normal 0.000000e+00 -0.000000e+00 1.000000e+00
      outer loop
         vertex 3.180505e+01 1.633713e+01 -6.705523e-07
         vertex 3.165165e+01 1.690960e+01 -6.705523e-07
         vertex 0.000000e+00 0.000000e+00 -6.705523e-07
      endloop
   endfacet
   facet normal 0.000000e+00 -0.000000e+00 1.000000e+00
      outer loop
         vertex 0.000000e+00 0.000000e+00 -6.705523e-07
         vertex 3.165165e+01 1.690960e+01 -6.705523e-07
         vertex 3.160000e+01 1.750000e+01 -6.705523e-07
      endloop
   endfacet
   facet normal 0.000000e+00 -0.000000e+00 1.000000e+00
      outer loop
         vertex 0.000000e+00 0.000000e+00 -6.705523e-07
         vertex 3.160000e+01 1.750000e+01 -6.705523e-07
         vertex 0.000000e+00 3.500000e+01 -6.705523e-07
      endloop
   endfacet
   facet normal 0.000000e+00 -0.000000e+00 1.000000e+00
      outer loop
         vertex 0.000000e+00 3.500000e+01 -6.705523e-07
         vertex 3.160000e+01 1.750000e+01 -6.705523e-07
         vertex 3.165165e+01 1.809040e+01 -6.705523e-07
      endloop
   endfacet
   facet normal 0.000000e+00 -0.000000e+00 1.000000e+00
      outer loop
         vertex 0.000000e+00 3.500000e+01 -6.705523e-07
         vertex 3.165165e+01 1.809040e+01 -6.705523e-07
         vertex 3.180505e+01 1.866287e+01 -6.705523e-07
      endloop
   endfacet
   facet normal 0.000000e+00 0.000000e+00 1.000000e+00
      outer loop
         vertex 1.408484e+02 1.690960e+01 -6.705523e-07
         vertex 1.725000e+02 0.000000e+00 -6.705523e-07
         vertex 1.409000e+02 1.750000e+01 -6.705523e-07
      endloop
   endfacet
   facet normal 0.000000e+00 0.000000e+00 1.000000e+00
      outer loop
         vertex 1.409000e+02 1.750000e+01 -6.705523e-07
         vertex 1.725000e+02 0.000000e+00 -6.705523e-07
         vertex 1.725000e+02 3.500000e+01 -6.705523e-07
      endloop
   endfacet
   facet normal 0.000000e+00 0.000000e+00 1.000000e+00
      outer loop
         vertex 1.408484e+02 1.690960e+01 -6.705523e-07
         vertex 1.406950e+02 1.633713e+01 -6.705523e-07
         vertex 1.725000e+02 0.000000e+00 -6.705523e-07
      endloop
   endfacet
   facet normal 0.000000e+00 -0.000000e+00 1.000000e+00
      outer loop
         vertex 1.725000e+02 0.000000e+00 -6.705523e-07
         vertex 1.406950e+02 1.633713e+01 -6.705523e-07
         vertex 1.404445e+02 1.580000e+01 -6.705523e-07
      endloop
   endfacet
   facet normal 0.000000e+00 -0.000000e+00 1.000000e+00
      outer loop
         vertex 1.725000e+02 0.000000e+00 -6.705523e-07
         vertex 1.404445e+02 1.580000e+01 -6.705523e-07
         vertex 1.401045e+02 1.531452e+01 -6.705523e-07
      endloop
   endfacet
   facet normal 0.000000e+00 0.000000e+00 1.000000e+00
      outer loop
         vertex 1.401045e+02 1.531452e+01 -6.705523e-07
         vertex 1.396855e+02 1.489545e+01 -6.705523e-07
         vertex 1.725000e+02 0.000000e+00 -6.705523e-07
      endloop
   endfacet
   facet normal 0.000000e+00 -0.000000e+00 1.000000e+00
      outer loop
         vertex 1.725000e+02 0.000000e+00 -6.705523e-07
         vertex 1.396855e+02 1.489545e+01 -6.705523e-07
         vertex 1.392000e+02 1.455551e+01 -6.705523e-07
      endloop
   endfacet
   facet normal 0.000000e+00 -0.000000e+00 1.000000e+00
      outer loop
         vertex 1.725000e+02 0.000000e+00 -6.705523e-07
         vertex 1.392000e+02 1.455551e+01 -6.705523e-07
         vertex 1.386629e+02 1.430504e+01 -6.705523e-07
      endloop
   endfacet
   facet normal 0.000000e+00 -0.000000e+00 1.000000e+00
      outer loop
         vertex 3.500000e+01 2.090000e+01 -6.705523e-07
         vertex 3.559040e+01 2.084835e+01 -6.705523e-07
         vertex 1.341517e+02 1.690960e+01 -6.705523e-07
      endloop
   endfacet
   facet normal 0.000000e+00 -0.000000e+00 1.000000e+00
      outer loop
         vertex 1.341517e+02 1.690960e+01 -6.705523e-07
         vertex 3.559040e+01 2.084835e+01 -6.705523e-07
         vertex 3.616287e+01 2.069495e+01 -6.705523e-07
      endloop
   endfacet
   facet normal 0.000000e+00 -0.000000e+00 1.000000e+00
      outer loop
         vertex 1.341517e+02 1.690960e+01 -6.705523e-07
         vertex 3.616287e+01 2.069495e+01 -6.705523e-07
         vertex 3.670000e+01 2.044449e+01 -6.705523e-07
      endloop
   endfacet
   facet normal 0.000000e+00 -0.000000e+00 1.000000e+00
      outer loop
         vertex 3.718548e+01 2.010455e+01 -6.705523e-07
         vertex 3.760455e+01 1.968548e+01 -6.705523e-07
         vertex 1.341517e+02 1.690960e+01 -6.705523e-07
      endloop
   endfacet
   facet normal 0.000000e+00 -0.000000e+00 1.000000e+00
      outer loop
         vertex 1.341517e+02 1.690960e+01 -6.705523e-07
         vertex 3.760455e+01 1.968548e+01 -6.705523e-07
         vertex 3.794449e+01 1.920000e+01 -6.705523e-07
      endloop
   endfacet
   facet normal 0.000000e+00 -0.000000e+00 1.000000e+00
      outer loop
         vertex 1.341517e+02 1.690960e+01 -6.705523e-07
         vertex 3.794449e+01 1.920000e+01 -6.705523e-07
         vertex 3.819495e+01 1.866287e+01 -6.705523e-07
      endloop
   endfacet
   facet normal 0.000000e+00 -0.000000e+00 1.000000e+00
      outer loop
         vertex 3.383713e+01 1.430504e+01 -6.705523e-07
         vertex 3.330000e+01 1.455551e+01 -6.705523e-07
         vertex 0.000000e+00 0.000000e+00 -6.705523e-07
      endloop
   endfacet
   facet normal 0.000000e+00 -0.000000e+00 1.000000e+00
      outer loop
         vertex 0.000000e+00 0.000000e+00 -6.705523e-07
         vertex 3.330000e+01 1.455551e+01 -6.705523e-07
         vertex 3.281452e+01 1.489545e+01 -6.705523e-07
      endloop
   endfacet
   facet normal 0.000000e+00 -0.000000e+00 1.000000e+00
      outer loop
         vertex 0.000000e+00 0.000000e+00 -6.705523e-07
         vertex 3.281452e+01 1.489545e+01 -6.705523e-07
         vertex 3.239545e+01 1.531452e+01 -6.705523e-07
      endloop
   endfacet
   facet normal 0.000000e+00 0.000000e+00 1.000000e+00
      outer loop
         vertex 1.404445e+02 1.920000e+01 -6.705523e-07
         vertex 1.406950e+02 1.866287e+01 -6.705523e-07
         vertex 1.725000e+02 3.500000e+01 -6.705523e-07
      endloop
   endfacet
   facet normal 0.000000e+00 -0.000000e+00 1.000000e+00
      outer loop
         vertex 1.725000e+02 3.500000e+01 -6.705523e-07
         vertex 1.406950e+02 1.866287e+01 -6.705523e-07
         vertex 1.408484e+02 1.809040e+01 -6.705523e-07
      endloop
   endfacet
   facet normal 0.000000e+00 -0.000000e+00 1.000000e+00
      outer loop
         vertex 1.725000e+02 3.500000e+01 -6.705523e-07
         vertex 1.408484e+02 1.809040e+01 -6.705523e-07
         vertex 1.409000e+02 1.750000e+01 -6.705523e-07
      endloop
   endfacet
   facet normal 0.000000e+00 0.000000e+00 1.000000e+00
      outer loop
         vertex 1.386629e+02 1.430504e+01 -6.705523e-07
         vertex 1.380904e+02 1.415165e+01 -6.705523e-07
         vertex 1.725000e+02 0.000000e+00 -6.705523e-07
      endloop
   endfacet
   facet normal 0.000000e+00 -0.000000e+00 1.000000e+00
      outer loop
         vertex 1.725000e+02 0.000000e+00 -6.705523e-07
         vertex 1.380904e+02 1.415165e+01 -6.705523e-07
         vertex 1.375000e+02 1.410000e+01 -6.705523e-07
      endloop
   endfacet
   facet normal 0.000000e+00 -0.000000e+00 1.000000e+00
      outer loop
         vertex 1.725000e+02 0.000000e+00 -6.705523e-07
         vertex 1.375000e+02 1.410000e+01 -6.705523e-07
         vertex 1.369096e+02 1.415165e+01 -6.705523e-07
      endloop
   endfacet
   facet normal 0.000000e+00 0.000000e+00 1.000000e+00
      outer loop
         vertex 1.345555e+02 1.580000e+01 -6.705523e-07
         vertex 3.840000e+01 1.750000e+01 -6.705523e-07
         vertex 1.348954e+02 1.531452e+01 -6.705523e-07
      endloop
   endfacet
   facet normal 0.000000e+00 -0.000000e+00 1.000000e+00
      outer loop
         vertex 1.348954e+02 1.531452e+01 -6.705523e-07
         vertex 3.840000e+01 1.750000e+01 -6.705523e-07
         vertex 3.834835e+01 1.690960e+01 -6.705523e-07
      endloop
   endfacet
   facet normal 0.000000e+00 -0.000000e+00 1.000000e+00
      outer loop
         vertex 1.348954e+02 1.531452e+01 -6.705523e-07
         vertex 3.834835e+01 1.690960e+01 -6.705523e-07
         vertex 3.819495e+01 1.633713e+01 -6.705523e-07
      endloop
   endfacet
   facet normal 0.000000e+00 -0.000000e+00 1.000000e+00
      outer loop
         vertex 3.819495e+01 1.866287e+01 -6.705523e-07
         vertex 3.834835e+01 1.809040e+01 -6.705523e-07
         vertex 1.341517e+02 1.690960e+01 -6.705523e-07
      endloop
   endfacet
   facet normal 0.000000e+00 -0.000000e+00 1.000000e+00
      outer loop
         vertex 1.341517e+02 1.690960e+01 -6.705523e-07
         vertex 3.834835e+01 1.809040e+01 -6.705523e-07
         vertex 3.840000e+01 1.750000e+01 -6.705523e-07
      endloop
   endfacet
   facet normal 0.000000e+00 0.000000e+00 1.000000e+00
      outer loop
         vertex 1.341517e+02 1.690960e+01 -6.705523e-07
         vertex 3.840000e+01 1.750000e+01 -6.705523e-07
         vertex 1.343050e+02 1.633713e+01 -6.705523e-07
      endloop
   endfacet
   facet normal 0.000000e+00 0.000000e+00 1.000000e+00
      outer loop
         vertex 1.343050e+02 1.633713e+01 -6.705523e-07
         vertex 3.840000e+01 1.750000e+01 -6.705523e-07
         vertex 1.345555e+02 1.580000e+01 -6.705523e-07
      endloop
   endfacet
   facet normal 0.000000e+00 0.000000e+00 1.000000e+00
      outer loop
         vertex 3.794449e+01 1.580000e+01 -6.705523e-07
         vertex 3.760455e+01 1.531452e+01 -6.705523e-07
         vertex 1.348954e+02 1.531452e+01 -6.705523e-07
      endloop
   endfacet
   facet normal 0.000000e+00 -0.000000e+00 1.000000e+00
      outer loop
         vertex 1.348954e+02 1.531452e+01 -6.705523e-07
         vertex 3.760455e+01 1.531452e+01 -6.705523e-07
         vertex 3.718548e+01 1.489545e+01 -6.705523e-07
      endloop
   endfacet
   facet normal 0.000000e+00 -0.000000e+00 1.000000e+00
      outer loop
         vertex 1.348954e+02 1.531452e+01 -6.705523e-07
         vertex 3.718548e+01 1.489545e+01 -6.705523e-07
         vertex 3.670000e+01 1.455551e+01 -6.705523e-07
      endloop
   endfacet
   facet normal 0.000000e+00 0.000000e+00 1.000000e+00
      outer loop
         vertex 3.670000e+01 1.455551e+01 -6.705523e-07
         vertex 3.616287e+01 1.430504e+01 -6.705523e-07
         vertex 1.348954e+02 1.531452e+01 -6.705523e-07
      endloop
   endfacet
   facet normal 0.000000e+00 -0.000000e+00 1.000000e+00
      outer loop
         vertex 1.348954e+02 1.531452e+01 -6.705523e-07
         vertex 3.616287e+01 1.430504e+01 -6.705523e-07
         vertex 3.559040e+01 1.415165e+01 -6.705523e-07
      endloop
   endfacet
   facet normal 0.000000e+00 -0.000000e+00 1.000000e+00
      outer loop
         vertex 1.348954e+02 1.531452e+01 -6.705523e-07
         vertex 3.559040e+01 1.415165e+01 -6.705523e-07
         vertex 0.000000e+00 0.000000e+00 -6.705523e-07
      endloop
   endfacet
   facet normal 0.000000e+00 -0.000000e+00 1.000000e+00
      outer loop
         vertex 0.000000e+00 0.000000e+00 -6.705523e-07
         vertex 3.559040e+01 1.415165e+01 -6.705523e-07
         vertex 3.500000e+01 1.410000e+01 -6.705523e-07
      endloop
   endfacet
   facet normal 0.000000e+00 -0.000000e+00 1.000000e+00
      outer loop
         vertex 0.000000e+00 0.000000e+00 -6.705523e-07
         vertex 3.500000e+01 1.410000e+01 -6.705523e-07
         vertex 3.440960e+01 1.415165e+01 -6.705523e-07
      endloop
   endfacet
   facet normal 0.000000e+00 -0.000000e+00 1.000000e+00
      outer loop
         vertex 3.205551e+01 1.920000e+01 -6.705523e-07
         vertex 3.239545e+01 1.968548e+01 -6.705523e-07
         vertex 0.000000e+00 3.500000e+01 -6.705523e-07
      endloop
   endfacet
   facet normal 0.000000e+00 -0.000000e+00 1.000000e+00
      outer loop
         vertex 0.000000e+00 3.500000e+01 -6.705523e-07
         vertex 3.239545e+01 1.968548e+01 -6.705523e-07
         vertex 3.281452e+01 2.010455e+01 -6.705523e-07
      endloop
   endfacet
   facet normal 0.000000e+00 -0.000000e+00 1.000000e+00
      outer loop
         vertex 0.000000e+00 3.500000e+01 -6.705523e-07
         vertex 3.281452e+01 2.010455e+01 -6.705523e-07
         vertex 3.330000e+01 2.044449e+01 -6.705523e-07
      endloop
   endfacet
   facet normal 0.000000e+00 -0.000000e+00 1.000000e+00
      outer loop
         vertex 3.330000e+01 2.044449e+01 -6.705523e-07
         vertex 3.383713e+01 2.069495e+01 -6.705523e-07
         vertex 0.000000e+00 3.500000e+01 -6.705523e-07
      endloop
   endfacet
   facet normal 0.000000e+00 -0.000000e+00 1.000000e+00
      outer loop
         vertex 0.000000e+00 3.500000e+01 -6.705523e-07
         vertex 3.383713e+01 2.069495e+01 -6.705523e-07
         vertex 3.440960e+01 2.084835e+01 -6.705523e-07
      endloop
   endfacet
   facet normal 0.000000e+00 -0.000000e+00 1.000000e+00
      outer loop
         vertex 0.000000e+00 3.500000e+01 -6.705523e-07
         vertex 3.440960e+01 2.084835e+01 -6.705523e-07
         vertex 3.500000e+01 2.090000e+01 -6.705523e-07
      endloop
   endfacet
   facet normal 0.000000e+00 -0.000000e+00 1.000000e+00
      outer loop
         vertex 1.341517e+02 1.690960e+01 -6.705523e-07
         vertex 1.341000e+02 1.750000e+01 -6.705523e-07
         vertex 3.500000e+01 2.090000e+01 -6.705523e-07
      endloop
   endfacet
   facet normal 0.000000e+00 -0.000000e+00 1.000000e+00
      outer loop
         vertex 3.500000e+01 2.090000e+01 -6.705523e-07
         vertex 1.341000e+02 1.750000e+01 -6.705523e-07
         vertex 1.341517e+02 1.809040e+01 -6.705523e-07
      endloop
   endfacet
   facet normal 0.000000e+00 0.000000e+00 1.000000e+00
      outer loop
         vertex 3.500000e+01 2.090000e+01 -6.705523e-07
         vertex 1.341517e+02 1.809040e+01 -6.705523e-07
         vertex 0.000000e+00 3.500000e+01 -6.705523e-07
      endloop
   endfacet
   facet normal 0.000000e+00 -0.000000e+00 1.000000e+00
      outer loop
         vertex 0.000000e+00 3.500000e+01 -6.705523e-07
         vertex 1.341517e+02 1.809040e+01 -6.705523e-07
         vertex 1.343050e+02 1.866287e+01 -6.705523e-07
      endloop
   endfacet
   facet normal 0.000000e+00 -0.000000e+00 1.000000e+00
      outer loop
         vertex 0.000000e+00 3.500000e+01 -6.705523e-07
         vertex 1.343050e+02 1.866287e+01 -6.705523e-07
         vertex 1.345555e+02 1.920000e+01 -6.705523e-07
      endloop
   endfacet
   facet normal 0.000000e+00 -0.000000e+00 1.000000e+00
      outer loop
         vertex 1.345555e+02 1.920000e+01 -6.705523e-07
         vertex 1.348954e+02 1.968548e+01 -6.705523e-07
         vertex 0.000000e+00 3.500000e+01 -6.705523e-07
      endloop
   endfacet
   facet normal 0.000000e+00 -0.000000e+00 1.000000e+00
      outer loop
         vertex 0.000000e+00 3.500000e+01 -6.705523e-07
         vertex 1.348954e+02 1.968548e+01 -6.705523e-07
         vertex 1.353145e+02 2.010455e+01 -6.705523e-07
      endloop
   endfacet
   facet normal 0.000000e+00 -0.000000e+00 1.000000e+00
      outer loop
         vertex 0.000000e+00 3.500000e+01 -6.705523e-07
         vertex 1.353145e+02 2.010455e+01 -6.705523e-07
         vertex 1.358000e+02 2.044449e+01 -6.705523e-07
      endloop
   endfacet
   facet normal 0.000000e+00 0.000000e+00 1.000000e+00
      outer loop
         vertex 1.380904e+02 2.084835e+01 -6.705523e-07
         vertex 1.386629e+02 2.069495e+01 -6.705523e-07
         vertex 1.725000e+02 3.500000e+01 -6.705523e-07
      endloop
   endfacet
   facet normal 0.000000e+00 -0.000000e+00 1.000000e+00
      outer loop
         vertex 1.725000e+02 3.500000e+01 -6.705523e-07
         vertex 1.386629e+02 2.069495e+01 -6.705523e-07
         vertex 1.392000e+02 2.044449e+01 -6.705523e-07
      endloop
   endfacet
   facet normal 0.000000e+00 0.000000e+00 1.000000e+00
      outer loop
         vertex 1.392000e+02 2.044449e+01 -6.705523e-07
         vertex 1.396855e+02 2.010455e+01 -6.705523e-07
         vertex 1.725000e+02 3.500000e+01 -6.705523e-07
      endloop
   endfacet
   facet normal 0.000000e+00 -0.000000e+00 1.000000e+00
      outer loop
         vertex 1.725000e+02 3.500000e+01 -6.705523e-07
         vertex 1.396855e+02 2.010455e+01 -6.705523e-07
         vertex 1.401045e+02 1.968548e+01 -6.705523e-07
      endloop
   endfacet
   facet normal 0.000000e+00 -0.000000e+00 1.000000e+00
      outer loop
         vertex 1.725000e+02 3.500000e+01 -6.705523e-07
         vertex 1.401045e+02 1.968548e+01 -6.705523e-07
         vertex 1.404445e+02 1.920000e+01 -6.705523e-07
      endloop
   endfacet
   facet normal 0.000000e+00 -0.000000e+00 1.000000e+00
      outer loop
         vertex 1.358000e+02 2.044449e+01 -6.705523e-07
         vertex 1.363371e+02 2.069495e+01 -6.705523e-07
         vertex 0.000000e+00 3.500000e+01 -6.705523e-07
      endloop
   endfacet
   facet normal 0.000000e+00 -0.000000e+00 1.000000e+00
      outer loop
         vertex 0.000000e+00 3.500000e+01 -6.705523e-07
         vertex 1.363371e+02 2.069495e+01 -6.705523e-07
         vertex 1.369096e+02 2.084835e+01 -6.705523e-07
      endloop
   endfacet
   facet normal 0.000000e+00 -0.000000e+00 1.000000e+00
      outer loop
         vertex 0.000000e+00 3.500000e+01 -6.705523e-07
         vertex 1.369096e+02 2.084835e+01 -6.705523e-07
         vertex 1.725000e+02 3.500000e+01 -6.705523e-07
      endloop
   endfacet
   facet normal 0.000000e+00 -0.000000e+00 1.000000e+00
      outer loop
         vertex 1.725000e+02 3.500000e+01 -6.705523e-07
         vertex 1.369096e+02 2.084835e+01 -6.705523e-07
         vertex 1.375000e+02 2.090000e+01 -6.705523e-07
      endloop
   endfacet
   facet normal 0.000000e+00 -0.000000e+00 1.000000e+00
      outer loop
         vertex 1.725000e+02 3.500000e+01 -6.705523e-07
         vertex 1.375000e+02 2.090000e+01 -6.705523e-07
         vertex 1.380904e+02 2.084835e+01 -6.705523e-07
      endloop
   endfacet
   facet normal 0.000000e+00 0.000000e+00 -1.000000e+00
      outer loop
         vertex 1.725000e+02 3.500000e+01 -3.000000e+01
         vertex 1.725000e+02 0.000000e+00 -3.000000e+01
         vertex 0.000000e+00 3.500000e+01 -3.000000e+01
      endloop
   endfacet
   facet normal 0.000000e+00 0.000000e+00 -1.000000e+00
      outer loop
         vertex 0.000000e+00 3.500000e+01 -3.000000e+01
         vertex 1.725000e+02 0.000000e+00 -3.000000e+01
         vertex 0.000000e+00 0.000000e+00 -3.000000e+01
      endloop
   endfacet
   facet normal -1.336736e-01 4.988831e-01 8.562985e-01
      outer loop
         vertex 1.375000e+02 1.750000e+01 -2.429293e+01
         vertex 1.380904e+02 1.415165e+01 -2.225000e+01
         vertex 1.386629e+02 1.430504e+01 -2.225000e+01
      endloop
   endfacet
   facet normal -4.501414e-02 5.145160e-01 8.562984e-01
      outer loop
         vertex 1.375000e+02 1.410000e+01 -2.225000e+01
         vertex 1.380904e+02 1.415165e+01 -2.225000e+01
         vertex 1.375000e+02 1.750000e+01 -2.429293e+01
      endloop
   endfacet
   facet normal -3.652113e-01 3.652040e-01 8.562983e-01
      outer loop
         vertex 1.375000e+02 1.750000e+01 -2.429293e+01
         vertex 1.396855e+02 1.489545e+01 -2.225000e+01
         vertex 1.401045e+02 1.531452e+01 -2.225000e+01
      endloop
   endfacet
   facet normal -2.962403e-01 4.230776e-01 8.562985e-01
      outer loop
         vertex 1.392000e+02 1.455551e+01 -2.225000e+01
         vertex 1.396855e+02 1.489545e+01 -2.225000e+01
         vertex 1.375000e+02 1.750000e+01 -2.429293e+01
      endloop
   endfacet
   facet normal -2.182761e-01 4.680902e-01 8.562985e-01
      outer loop
         vertex 1.386629e+02 1.430504e+01 -2.225000e+01
         vertex 1.392000e+02 1.455551e+01 -2.225000e+01
         vertex 1.375000e+02 1.750000e+01 -2.429293e+01
      endloop
   endfacet
   facet normal -4.988820e-01 1.336763e-01 8.562987e-01
      outer loop
         vertex 1.375000e+02 1.750000e+01 -2.429293e+01
         vertex 1.406950e+02 1.633713e+01 -2.225000e+01
         vertex 1.408484e+02 1.690960e+01 -2.225000e+01
      endloop
   endfacet
   facet normal -4.680895e-01 2.182776e-01 8.562985e-01
      outer loop
         vertex 1.404445e+02 1.580000e+01 -2.225000e+01
         vertex 1.406950e+02 1.633713e+01 -2.225000e+01
         vertex 1.375000e+02 1.750000e+01 -2.429293e+01
      endloop
   endfacet
   facet normal -4.230748e-01 2.962450e-01 8.562982e-01
      outer loop
         vertex 1.401045e+02 1.531452e+01 -2.225000e+01
         vertex 1.404445e+02 1.580000e+01 -2.225000e+01
         vertex 1.375000e+02 1.750000e+01 -2.429293e+01
      endloop
   endfacet
   facet normal -4.988820e-01 -1.336763e-01 8.562987e-01
      outer loop
         vertex 1.375000e+02 1.750000e+01 -2.429293e+01
         vertex 1.408484e+02 1.809040e+01 -2.225000e+01
         vertex 1.406950e+02 1.866287e+01 -2.225000e+01
      endloop
   endfacet
   facet normal -5.145163e-01 -4.500888e-02 8.562985e-01
      outer loop
         vertex 1.409000e+02 1.750000e+01 -2.225000e+01
         vertex 1.408484e+02 1.809040e+01 -2.225000e+01
         vertex 1.375000e+02 1.750000e+01 -2.429293e+01
      endloop
   endfacet
   facet normal -5.145163e-01 4.500888e-02 8.562985e-01
      outer loop
         vertex 1.408484e+02 1.690960e+01 -2.225000e+01
         vertex 1.409000e+02 1.750000e+01 -2.225000e+01
         vertex 1.375000e+02 1.750000e+01 -2.429293e+01
      endloop
   endfacet
   facet normal -3.652117e-01 -3.652036e-01 8.562983e-01
      outer loop
         vertex 1.375000e+02 1.750000e+01 -2.429293e+01
         vertex 1.401045e+02 1.968548e+01 -2.225000e+01
         vertex 1.396855e+02 2.010455e+01 -2.225000e+01
      endloop
   endfacet
   facet normal -4.230746e-01 -2.962454e-01 8.562982e-01
      outer loop
         vertex 1.404445e+02 1.920000e+01 -2.225000e+01
         vertex 1.401045e+02 1.968548e+01 -2.225000e+01
         vertex 1.375000e+02 1.750000e+01 -2.429293e+01
      endloop
   endfacet
   facet normal -4.680895e-01 -2.182776e-01 8.562985e-01
      outer loop
         vertex 1.406950e+02 1.866287e+01 -2.225000e+01
         vertex 1.404445e+02 1.920000e+01 -2.225000e+01
         vertex 1.375000e+02 1.750000e+01 -2.429293e+01
      endloop
   endfacet
   facet normal -1.336743e-01 -4.988829e-01 8.562984e-01
      outer loop
         vertex 1.375000e+02 1.750000e+01 -2.429293e+01
         vertex 1.386629e+02 2.069495e+01 -2.225000e+01
         vertex 1.380904e+02 2.084835e+01 -2.225000e+01
      endloop
   endfacet
   facet normal -2.182755e-01 -4.680906e-01 8.562985e-01
      outer loop
         vertex 1.392000e+02 2.044449e+01 -2.225000e+01
         vertex 1.386629e+02 2.069495e+01 -2.225000e+01
         vertex 1.375000e+02 1.750000e+01 -2.429293e+01
      endloop
   endfacet
   facet normal -2.962403e-01 -4.230776e-01 8.562985e-01
      outer loop
         vertex 1.396855e+02 2.010455e+01 -2.225000e+01
         vertex 1.392000e+02 2.044449e+01 -2.225000e+01
         vertex 1.375000e+02 1.750000e+01 -2.429293e+01
      endloop
   endfacet
   facet normal 1.336775e-01 -4.988819e-01 8.562986e-01
      outer loop
         vertex 1.375000e+02 1.750000e+01 -2.429293e+01
         vertex 1.369096e+02 2.084835e+01 -2.225000e+01
         vertex 1.363371e+02 2.069495e+01 -2.225000e+01
      endloop
   endfacet
   facet normal 4.501301e-02 -5.145160e-01 8.562985e-01
      outer loop
         vertex 1.375000e+02 2.090000e+01 -2.225000e+01
         vertex 1.369096e+02 2.084835e+01 -2.225000e+01
         vertex 1.375000e+02 1.750000e+01 -2.429293e+01
      endloop
   endfacet
   facet normal -4.501414e-02 -5.145160e-01 8.562984e-01
      outer loop
         vertex 1.380904e+02 2.084835e+01 -2.225000e+01
         vertex 1.375000e+02 2.090000e+01 -2.225000e+01
         vertex 1.375000e+02 1.750000e+01 -2.429293e+01
      endloop
   endfacet
   facet normal 3.652048e-01 -3.652097e-01 8.562986e-01
      outer loop
         vertex 1.375000e+02 1.750000e+01 -2.429293e+01
         vertex 1.353145e+02 2.010455e+01 -2.225000e+01
         vertex 1.348954e+02 1.968548e+01 -2.225000e+01
      endloop
   endfacet
   facet normal 2.962403e-01 -4.230776e-01 8.562985e-01
      outer loop
         vertex 1.358000e+02 2.044449e+01 -2.225000e+01
         vertex 1.353145e+02 2.010455e+01 -2.225000e+01
         vertex 1.375000e+02 1.750000e+01 -2.429293e+01
      endloop
   endfacet
   facet normal 2.182755e-01 -4.680906e-01 8.562985e-01
      outer loop
         vertex 1.363371e+02 2.069495e+01 -2.225000e+01
         vertex 1.358000e+02 2.044449e+01 -2.225000e+01
         vertex 1.375000e+02 1.750000e+01 -2.429293e+01
      endloop
   endfacet
   facet normal 4.988820e-01 -1.336763e-01 8.562987e-01
      outer loop
         vertex 1.375000e+02 1.750000e+01 -2.429293e+01
         vertex 1.343050e+02 1.866287e+01 -2.225000e+01
         vertex 1.341517e+02 1.809040e+01 -2.225000e+01
      endloop
   endfacet
   facet normal 4.680895e-01 -2.182776e-01 8.562985e-01
      outer loop
         vertex 1.345555e+02 1.920000e+01 -2.225000e+01
         vertex 1.343050e+02 1.866287e+01 -2.225000e+01
         vertex 1.375000e+02 1.750000e+01 -2.429293e+01
      endloop
   endfacet
   facet normal 4.230801e-01 -2.962363e-01 8.562986e-01
      outer loop
         vertex 1.348954e+02 1.968548e+01 -2.225000e+01
         vertex 1.345555e+02 1.920000e+01 -2.225000e+01
         vertex 1.375000e+02 1.750000e+01 -2.429293e+01
      endloop
   endfacet
   facet normal 4.988820e-01 1.336763e-01 8.562987e-01
      outer loop
         vertex 1.375000e+02 1.750000e+01 -2.429293e+01
         vertex 1.341517e+02 1.690960e+01 -2.225000e+01
         vertex 1.343050e+02 1.633713e+01 -2.225000e+01
      endloop
   endfacet
   facet normal 5.145163e-01 4.500888e-02 8.562985e-01
      outer loop
         vertex 1.341000e+02 1.750000e+01 -2.225000e+01
         vertex 1.341517e+02 1.690960e+01 -2.225000e+01
         vertex 1.375000e+02 1.750000e+01 -2.429293e+01
      endloop
   endfacet
   facet normal 5.145163e-01 -4.500888e-02 8.562985e-01
      outer loop
         vertex 1.341517e+02 1.809040e+01 -2.225000e+01
         vertex 1.341000e+02 1.750000e+01 -2.225000e+01
         vertex 1.375000e+02 1.750000e+01 -2.429293e+01
      endloop
   endfacet
   facet normal 3.652044e-01 3.652100e-01 8.562987e-01
      outer loop
         vertex 1.375000e+02 1.750000e+01 -2.429293e+01
         vertex 1.348954e+02 1.531452e+01 -2.225000e+01
         vertex 1.353145e+02 1.489545e+01 -2.225000e+01
      endloop
   endfacet
   facet normal 4.230803e-01 2.962359e-01 8.562986e-01
      outer loop
         vertex 1.345555e+02 1.580000e+01 -2.225000e+01
         vertex 1.348954e+02 1.531452e+01 -2.225000e+01
         vertex 1.375000e+02 1.750000e+01 -2.429293e+01
      endloop
   endfacet
   facet normal 4.680895e-01 2.182776e-01 8.562985e-01
      outer loop
         vertex 1.343050e+02 1.633713e+01 -2.225000e+01
         vertex 1.345555e+02 1.580000e+01 -2.225000e+01
         vertex 1.375000e+02 1.750000e+01 -2.429293e+01
      endloop
   endfacet
   facet normal 1.336768e-01 4.988820e-01 8.562986e-01
      outer loop
         vertex 1.375000e+02 1.750000e+01 -2.429293e+01
         vertex 1.363371e+02 1.430504e+01 -2.225000e+01
         vertex 1.369096e+02 1.415165e+01 -2.225000e+01
      endloop
   endfacet
   facet normal 2.182761e-01 4.680902e-01 8.562985e-01
      outer loop
         vertex 1.358000e+02 1.455551e+01 -2.225000e+01
         vertex 1.363371e+02 1.430504e+01 -2.225000e+01
         vertex 1.375000e+02 1.750000e+01 -2.429293e+01
      endloop
   endfacet
   facet normal 2.962403e-01 4.230776e-01 8.562985e-01
      outer loop
         vertex 1.353145e+02 1.489545e+01 -2.225000e+01
         vertex 1.358000e+02 1.455551e+01 -2.225000e+01
         vertex 1.375000e+02 1.750000e+01 -2.429293e+01
      endloop
   endfacet
   facet normal 4.501301e-02 5.145160e-01 8.562985e-01
      outer loop
         vertex 1.369096e+02 1.415165e+01 -2.225000e+01
         vertex 1.375000e+02 1.410000e+01 -2.225000e+01
         vertex 1.375000e+02 1.750000e+01 -2.429293e+01
      endloop
   endfacet
   facet normal -8.715541e-02 9.961947e-01 0.000000e+00
      outer loop
         vertex 1.375000e+02 1.410000e+01 -2.225000e+01
         vertex 1.375000e+02 1.410000e+01 -6.705523e-07
         vertex 1.380904e+02 1.415165e+01 -2.225000e+01
      endloop
   endfacet
   facet normal -8.715541e-02 9.961947e-01 0.000000e+00
      outer loop
         vertex 1.380904e+02 1.415165e+01 -2.225000e+01
         vertex 1.375000e+02 1.410000e+01 -6.705523e-07
         vertex 1.380904e+02 1.415165e+01 -6.705523e-07
      endloop
   endfacet
   facet normal -2.588159e-01 9.659267e-01 0.000000e+00
      outer loop
         vertex 1.380904e+02 1.415165e+01 -2.225000e+01
         vertex 1.380904e+02 1.415165e+01 -6.705523e-07
         vertex 1.386629e+02 1.430504e+01 -2.225000e+01
      endloop
   endfacet
   facet normal -2.588159e-01 9.659267e-01 0.000000e+00
      outer loop
         vertex 1.386629e+02 1.430504e+01 -2.225000e+01
         vertex 1.380904e+02 1.415165e+01 -6.705523e-07
         vertex 1.386629e+02 1.430504e+01 -6.705523e-07
      endloop
   endfacet
   facet normal -4.226216e-01 9.063062e-01 0.000000e+00
      outer loop
         vertex 1.386629e+02 1.430504e+01 -2.225000e+01
         vertex 1.386629e+02 1.430504e+01 -6.705523e-07
         vertex 1.392000e+02 1.455551e+01 -2.225000e+01
      endloop
   endfacet
   facet normal -4.226216e-01 9.063062e-01 0.000000e+00
      outer loop
         vertex 1.392000e+02 1.455551e+01 -2.225000e+01
         vertex 1.386629e+02 1.430504e+01 -6.705523e-07
         vertex 1.392000e+02 1.455551e+01 -6.705523e-07
      endloop
   endfacet
   facet normal -5.735741e-01 8.191537e-01 0.000000e+00
      outer loop
         vertex 1.392000e+02 1.455551e+01 -2.225000e+01
         vertex 1.392000e+02 1.455551e+01 -6.705523e-07
         vertex 1.396855e+02 1.489545e+01 -2.225000e+01
      endloop
   endfacet
   facet normal -5.735741e-01 8.191537e-01 0.000000e+00
      outer loop
         vertex 1.396855e+02 1.489545e+01 -2.225000e+01
         vertex 1.392000e+02 1.455551e+01 -6.705523e-07
         vertex 1.396855e+02 1.489545e+01 -6.705523e-07
      endloop
   endfacet
   facet normal -7.071139e-01 7.070997e-01 0.000000e+00
      outer loop
         vertex 1.396855e+02 1.489545e+01 -2.225000e+01
         vertex 1.396855e+02 1.489545e+01 -6.705523e-07
         vertex 1.401045e+02 1.531452e+01 -2.225000e+01
      endloop
   endfacet
   facet normal -7.071139e-01 7.070997e-01 0.000000e+00
      outer loop
         vertex 1.401045e+02 1.531452e+01 -2.225000e+01
         vertex 1.396855e+02 1.489545e+01 -6.705523e-07
         vertex 1.401045e+02 1.531452e+01 -6.705523e-07
      endloop
   endfacet
   facet normal -8.191477e-01 5.735827e-01 0.000000e+00
      outer loop
         vertex 1.401045e+02 1.531452e+01 -2.225000e+01
         vertex 1.401045e+02 1.531452e+01 -6.705523e-07
         vertex 1.404445e+02 1.580000e+01 -2.225000e+01
      endloop
   endfacet
   facet normal -8.191477e-01 5.735827e-01 0.000000e+00
      outer loop
         vertex 1.404445e+02 1.580000e+01 -2.225000e+01
         vertex 1.401045e+02 1.531452e+01 -6.705523e-07
         vertex 1.404445e+02 1.580000e+01 -6.705523e-07
      endloop
   endfacet
   facet normal -9.063049e-01 4.226244e-01 0.000000e+00
      outer loop
         vertex 1.404445e+02 1.580000e+01 -2.225000e+01
         vertex 1.404445e+02 1.580000e+01 -6.705523e-07
         vertex 1.406950e+02 1.633713e+01 -2.225000e+01
      endloop
   endfacet
   facet normal -9.063049e-01 4.226244e-01 0.000000e+00
      outer loop
         vertex 1.406950e+02 1.633713e+01 -2.225000e+01
         vertex 1.404445e+02 1.580000e+01 -6.705523e-07
         vertex 1.406950e+02 1.633713e+01 -6.705523e-07
      endloop
   endfacet
   facet normal -9.659252e-01 2.588213e-01 0.000000e+00
      outer loop
         vertex 1.406950e+02 1.633713e+01 -2.225000e+01
         vertex 1.406950e+02 1.633713e+01 -6.705523e-07
         vertex 1.408484e+02 1.690960e+01 -2.225000e+01
      endloop
   endfacet
   facet normal -9.659252e-01 2.588213e-01 0.000000e+00
      outer loop
         vertex 1.408484e+02 1.690960e+01 -2.225000e+01
         vertex 1.406950e+02 1.633713e+01 -6.705523e-07
         vertex 1.408484e+02 1.690960e+01 -6.705523e-07
      endloop
   endfacet
   facet normal -9.961956e-01 8.714523e-02 0.000000e+00
      outer loop
         vertex 1.408484e+02 1.690960e+01 -2.225000e+01
         vertex 1.408484e+02 1.690960e+01 -6.705523e-07
         vertex 1.409000e+02 1.750000e+01 -2.225000e+01
      endloop
   endfacet
   facet normal -9.961956e-01 8.714523e-02 0.000000e+00
      outer loop
         vertex 1.409000e+02 1.750000e+01 -2.225000e+01
         vertex 1.408484e+02 1.690960e+01 -6.705523e-07
         vertex 1.409000e+02 1.750000e+01 -6.705523e-07
      endloop
   endfacet
   facet normal -9.961956e-01 -8.714523e-02 0.000000e+00
      outer loop
         vertex 1.409000e+02 1.750000e+01 -2.225000e+01
         vertex 1.409000e+02 1.750000e+01 -6.705523e-07
         vertex 1.408484e+02 1.809040e+01 -2.225000e+01
      endloop
   endfacet
   facet normal -9.961956e-01 -8.714523e-02 0.000000e+00
      outer loop
         vertex 1.408484e+02 1.809040e+01 -2.225000e+01
         vertex 1.409000e+02 1.750000e+01 -6.705523e-07
         vertex 1.408484e+02 1.809040e+01 -6.705523e-07
      endloop
   endfacet
   facet normal -9.659252e-01 -2.588213e-01 0.000000e+00
      outer loop
         vertex 1.408484e+02 1.809040e+01 -2.225000e+01
         vertex 1.408484e+02 1.809040e+01 -6.705523e-07
         vertex 1.406950e+02 1.866287e+01 -2.225000e+01
      endloop
   endfacet
   facet normal -9.659252e-01 -2.588213e-01 0.000000e+00
      outer loop
         vertex 1.406950e+02 1.866287e+01 -2.225000e+01
         vertex 1.408484e+02 1.809040e+01 -6.705523e-07
         vertex 1.406950e+02 1.866287e+01 -6.705523e-07
      endloop
   endfacet
   facet normal -9.063049e-01 -4.226244e-01 0.000000e+00
      outer loop
         vertex 1.406950e+02 1.866287e+01 -2.225000e+01
         vertex 1.406950e+02 1.866287e+01 -6.705523e-07
         vertex 1.404445e+02 1.920000e+01 -2.225000e+01
      endloop
   endfacet
   facet normal -9.063049e-01 -4.226244e-01 0.000000e+00
      outer loop
         vertex 1.404445e+02 1.920000e+01 -2.225000e+01
         vertex 1.406950e+02 1.866287e+01 -6.705523e-07
         vertex 1.404445e+02 1.920000e+01 -6.705523e-07
      endloop
   endfacet
   facet normal -8.191472e-01 -5.735834e-01 0.000000e+00
      outer loop
         vertex 1.404445e+02 1.920000e+01 -2.225000e+01
         vertex 1.404445e+02 1.920000e+01 -6.705523e-07
         vertex 1.401045e+02 1.968548e+01 -2.225000e+01
      endloop
   endfacet
   facet normal -8.191472e-01 -5.735834e-01 0.000000e+00
      outer loop
         vertex 1.401045e+02 1.968548e+01 -2.225000e+01
         vertex 1.404445e+02 1.920000e+01 -6.705523e-07
         vertex 1.401045e+02 1.968548e+01 -6.705523e-07
      endloop
   endfacet
   facet normal -7.071146e-01 -7.070989e-01 0.000000e+00
      outer loop
         vertex 1.401045e+02 1.968548e+01 -2.225000e+01
         vertex 1.401045e+02 1.968548e+01 -6.705523e-07
         vertex 1.396855e+02 2.010455e+01 -2.225000e+01
      endloop
   endfacet
   facet normal -7.071146e-01 -7.070989e-01 0.000000e+00
      outer loop
         vertex 1.396855e+02 2.010455e+01 -2.225000e+01
         vertex 1.401045e+02 1.968548e+01 -6.705523e-07
         vertex 1.396855e+02 2.010455e+01 -6.705523e-07
      endloop
   endfacet
   facet normal -5.735741e-01 -8.191537e-01 0.000000e+00
      outer loop
         vertex 1.396855e+02 2.010455e+01 -2.225000e+01
         vertex 1.396855e+02 2.010455e+01 -6.705523e-07
         vertex 1.392000e+02 2.044449e+01 -2.225000e+01
      endloop
   endfacet
   facet normal -5.735741e-01 -8.191537e-01 0.000000e+00
      outer loop
         vertex 1.392000e+02 2.044449e+01 -2.225000e+01
         vertex 1.396855e+02 2.010455e+01 -6.705523e-07
         vertex 1.392000e+02 2.044449e+01 -6.705523e-07
      endloop
   endfacet
   facet normal -4.226203e-01 -9.063068e-01 0.000000e+00
      outer loop
         vertex 1.392000e+02 2.044449e+01 -2.225000e+01
         vertex 1.392000e+02 2.044449e+01 -6.705523e-07
         vertex 1.386629e+02 2.069495e+01 -2.225000e+01
      endloop
   endfacet
   facet normal -4.226203e-01 -9.063068e-01 0.000000e+00
      outer loop
         vertex 1.386629e+02 2.069495e+01 -2.225000e+01
         vertex 1.392000e+02 2.044449e+01 -6.705523e-07
         vertex 1.386629e+02 2.069495e+01 -6.705523e-07
      endloop
   endfacet
   facet normal -2.588174e-01 -9.659263e-01 0.000000e+00
      outer loop
         vertex 1.386629e+02 2.069495e+01 -2.225000e+01
         vertex 1.386629e+02 2.069495e+01 -6.705523e-07
         vertex 1.380904e+02 2.084835e+01 -2.225000e+01
      endloop
   endfacet
   facet normal -2.588174e-01 -9.659263e-01 0.000000e+00
      outer loop
         vertex 1.380904e+02 2.084835e+01 -2.225000e+01
         vertex 1.386629e+02 2.069495e+01 -6.705523e-07
         vertex 1.380904e+02 2.084835e+01 -6.705523e-07
      endloop
   endfacet
   facet normal -8.715541e-02 -9.961947e-01 0.000000e+00
      outer loop
         vertex 1.380904e+02 2.084835e+01 -2.225000e+01
         vertex 1.380904e+02 2.084835e+01 -6.705523e-07
         vertex 1.375000e+02 2.090000e+01 -2.225000e+01
      endloop
   endfacet
   facet normal -8.715541e-02 -9.961947e-01 0.000000e+00
      outer loop
         vertex 1.375000e+02 2.090000e+01 -2.225000e+01
         vertex 1.380904e+02 2.084835e+01 -6.705523e-07
         vertex 1.375000e+02 2.090000e+01 -6.705523e-07
      endloop
   endfacet
   facet normal 8.715323e-02 -9.961949e-01 0.000000e+00
      outer loop
         vertex 1.375000e+02 2.090000e+01 -2.225000e+01
         vertex 1.375000e+02 2.090000e+01 -6.705523e-07
         vertex 1.369096e+02 2.084835e+01 -2.225000e+01
      endloop
   endfacet
   facet normal 8.715323e-02 -9.961949e-01 0.000000e+00
      outer loop
         vertex 1.369096e+02 2.084835e+01 -2.225000e+01
         vertex 1.375000e+02 2.090000e+01 -6.705523e-07
         vertex 1.369096e+02 2.084835e+01 -6.705523e-07
      endloop
   endfacet
   facet normal 2.588236e-01 -9.659246e-01 0.000000e+00
      outer loop
         vertex 1.369096e+02 2.084835e+01 -2.225000e+01
         vertex 1.369096e+02 2.084835e+01 -6.705523e-07
         vertex 1.363371e+02 2.069495e+01 -2.225000e+01
      endloop
   endfacet
   facet normal 2.588236e-01 -9.659246e-01 0.000000e+00
      outer loop
         vertex 1.363371e+02 2.069495e+01 -2.225000e+01
         vertex 1.369096e+02 2.084835e+01 -6.705523e-07
         vertex 1.363371e+02 2.069495e+01 -6.705523e-07
      endloop
   endfacet
   facet normal 4.226203e-01 -9.063068e-01 0.000000e+00
      outer loop
         vertex 1.363371e+02 2.069495e+01 -2.225000e+01
         vertex 1.363371e+02 2.069495e+01 -6.705523e-07
         vertex 1.358000e+02 2.044449e+01 -2.225000e+01
      endloop
   endfacet
   facet normal 4.226203e-01 -9.063068e-01 0.000000e+00
      outer loop
         vertex 1.358000e+02 2.044449e+01 -2.225000e+01
         vertex 1.363371e+02 2.069495e+01 -6.705523e-07
         vertex 1.358000e+02 2.044449e+01 -6.705523e-07
      endloop
   endfacet
   facet normal 5.735741e-01 -8.191537e-01 0.000000e+00
      outer loop
         vertex 1.358000e+02 2.044449e+01 -2.225000e+01
         vertex 1.358000e+02 2.044449e+01 -6.705523e-07
         vertex 1.353145e+02 2.010455e+01 -2.225000e+01
      endloop
   endfacet
   facet normal 5.735741e-01 -8.191537e-01 0.000000e+00
      outer loop
         vertex 1.353145e+02 2.010455e+01 -2.225000e+01
         vertex 1.358000e+02 2.044449e+01 -6.705523e-07
         vertex 1.353145e+02 2.010455e+01 -6.705523e-07
      endloop
   endfacet
   facet normal 7.071021e-01 -7.071115e-01 0.000000e+00
      outer loop
         vertex 1.353145e+02 2.010455e+01 -2.225000e+01
         vertex 1.353145e+02 2.010455e+01 -6.705523e-07
         vertex 1.348954e+02 1.968548e+01 -2.225000e+01
      endloop
   endfacet
   facet normal 7.071021e-01 -7.071115e-01 0.000000e+00
      outer loop
         vertex 1.348954e+02 1.968548e+01 -2.225000e+01
         vertex 1.353145e+02 2.010455e+01 -6.705523e-07
         vertex 1.348954e+02 1.968548e+01 -6.705523e-07
      endloop
   endfacet
   facet normal 8.191590e-01 -5.735665e-01 0.000000e+00
      outer loop
         vertex 1.348954e+02 1.968548e+01 -2.225000e+01
         vertex 1.348954e+02 1.968548e+01 -6.705523e-07
         vertex 1.345555e+02 1.920000e+01 -2.225000e+01
      endloop
   endfacet
   facet normal 8.191590e-01 -5.735665e-01 0.000000e+00
      outer loop
         vertex 1.345555e+02 1.920000e+01 -2.225000e+01
         vertex 1.348954e+02 1.968548e+01 -6.705523e-07
         vertex 1.345555e+02 1.920000e+01 -6.705523e-07
      endloop
   endfacet
   facet normal 9.063049e-01 -4.226244e-01 0.000000e+00
      outer loop
         vertex 1.345555e+02 1.920000e+01 -2.225000e+01
         vertex 1.345555e+02 1.920000e+01 -6.705523e-07
         vertex 1.343050e+02 1.866287e+01 -2.225000e+01
      endloop
   endfacet
   facet normal 9.063049e-01 -4.226244e-01 0.000000e+00
      outer loop
         vertex 1.343050e+02 1.866287e+01 -2.225000e+01
         vertex 1.345555e+02 1.920000e+01 -6.705523e-07
         vertex 1.343050e+02 1.866287e+01 -6.705523e-07
      endloop
   endfacet
   facet normal 9.659252e-01 -2.588213e-01 0.000000e+00
      outer loop
         vertex 1.343050e+02 1.866287e+01 -2.225000e+01
         vertex 1.343050e+02 1.866287e+01 -6.705523e-07
         vertex 1.341517e+02 1.809040e+01 -2.225000e+01
      endloop
   endfacet
   facet normal 9.659252e-01 -2.588213e-01 0.000000e+00
      outer loop
         vertex 1.341517e+02 1.809040e+01 -2.225000e+01
         vertex 1.343050e+02 1.866287e+01 -6.705523e-07
         vertex 1.341517e+02 1.809040e+01 -6.705523e-07
      endloop
   endfacet
   facet normal 9.961956e-01 -8.714523e-02 0.000000e+00
      outer loop
         vertex 1.341517e+02 1.809040e+01 -2.225000e+01
         vertex 1.341517e+02 1.809040e+01 -6.705523e-07
         vertex 1.341000e+02 1.750000e+01 -2.225000e+01
      endloop
   endfacet
   facet normal 9.961956e-01 -8.714523e-02 0.000000e+00
      outer loop
         vertex 1.341000e+02 1.750000e+01 -2.225000e+01
         vertex 1.341517e+02 1.809040e+01 -6.705523e-07
         vertex 1.341000e+02 1.750000e+01 -6.705523e-07
      endloop
   endfacet
   facet normal 9.961956e-01 8.714523e-02 0.000000e+00
      outer loop
         vertex 1.341000e+02 1.750000e+01 -2.225000e+01
         vertex 1.341000e+02 1.750000e+01 -6.705523e-07
         vertex 1.341517e+02 1.690960e+01 -2.225000e+01
      endloop
   endfacet
   facet normal 9.961956e-01 8.714523e-02 0.000000e+00
      outer loop
         vertex 1.341517e+02 1.690960e+01 -2.225000e+01
         vertex 1.341000e+02 1.750000e+01 -6.705523e-07
         vertex 1.341517e+02 1.690960e+01 -6.705523e-07
      endloop
   endfacet
   facet normal 9.659252e-01 2.588213e-01 0.000000e+00
      outer loop
         vertex 1.341517e+02 1.690960e+01 -2.225000e+01
         vertex 1.341517e+02 1.690960e+01 -6.705523e-07
         vertex 1.343050e+02 1.633713e+01 -2.225000e+01
      endloop
   endfacet
   facet normal 9.659252e-01 2.588213e-01 0.000000e+00
      outer loop
         vertex 1.343050e+02 1.633713e+01 -2.225000e+01
         vertex 1.341517e+02 1.690960e+01 -6.705523e-07
         vertex 1.343050e+02 1.633713e+01 -6.705523e-07
      endloop
   endfacet
   facet normal 9.063049e-01 4.226244e-01 0.000000e+00
      outer loop
         vertex 1.343050e+02 1.633713e+01 -2.225000e+01
         vertex 1.343050e+02 1.633713e+01 -6.705523e-07
         vertex 1.345555e+02 1.580000e+01 -2.225000e+01
      endloop
   endfacet
   facet normal 9.063049e-01 4.226244e-01 0.000000e+00
      outer loop
         vertex 1.345555e+02 1.580000e+01 -2.225000e+01
         vertex 1.343050e+02 1.633713e+01 -6.705523e-07
         vertex 1.345555e+02 1.580000e+01 -6.705523e-07
      endloop
   endfacet
   facet normal 8.191595e-01 5.735658e-01 0.000000e+00
      outer loop
         vertex 1.345555e+02 1.580000e+01 -2.225000e+01
         vertex 1.345555e+02 1.580000e+01 -6.705523e-07
         vertex 1.348954e+02 1.531452e+01 -2.225000e+01
      endloop
   endfacet
   facet normal 8.191595e-01 5.735658e-01 0.000000e+00
      outer loop
         vertex 1.348954e+02 1.531452e+01 -2.225000e+01
         vertex 1.345555e+02 1.580000e+01 -6.705523e-07
         vertex 1.348954e+02 1.531452e+01 -6.705523e-07
      endloop
   endfacet
   facet normal 7.071013e-01 7.071123e-01 0.000000e+00
      outer loop
         vertex 1.348954e+02 1.531452e+01 -2.225000e+01
         vertex 1.348954e+02 1.531452e+01 -6.705523e-07
         vertex 1.353145e+02 1.489545e+01 -2.225000e+01
      endloop
   endfacet
   facet normal 7.071013e-01 7.071123e-01 0.000000e+00
      outer loop
         vertex 1.353145e+02 1.489545e+01 -2.225000e+01
         vertex 1.348954e+02 1.531452e+01 -6.705523e-07
         vertex 1.353145e+02 1.489545e+01 -6.705523e-07
      endloop
   endfacet
   facet normal 5.735741e-01 8.191537e-01 0.000000e+00
      outer loop
         vertex 1.353145e+02 1.489545e+01 -2.225000e+01
         vertex 1.353145e+02 1.489545e+01 -6.705523e-07
         vertex 1.358000e+02 1.455551e+01 -2.225000e+01
      endloop
   endfacet
   facet normal 5.735741e-01 8.191537e-01 0.000000e+00
      outer loop
         vertex 1.358000e+02 1.455551e+01 -2.225000e+01
         vertex 1.353145e+02 1.489545e+01 -6.705523e-07
         vertex 1.358000e+02 1.455551e+01 -6.705523e-07
      endloop
   endfacet
   facet normal 4.226216e-01 9.063062e-01 0.000000e+00
      outer loop
         vertex 1.358000e+02 1.455551e+01 -2.225000e+01
         vertex 1.358000e+02 1.455551e+01 -6.705523e-07
         vertex 1.363371e+02 1.430504e+01 -2.225000e+01
      endloop
   endfacet
   facet normal 4.226216e-01 9.063062e-01 0.000000e+00
      outer loop
         vertex 1.363371e+02 1.430504e+01 -2.225000e+01
         vertex 1.358000e+02 1.455551e+01 -6.705523e-07
         vertex 1.363371e+02 1.430504e+01 -6.705523e-07
      endloop
   endfacet
   facet normal 2.588222e-01 9.659250e-01 0.000000e+00
      outer loop
         vertex 1.363371e+02 1.430504e+01 -2.225000e+01
         vertex 1.363371e+02 1.430504e+01 -6.705523e-07
         vertex 1.369096e+02 1.415165e+01 -2.225000e+01
      endloop
   endfacet
   facet normal 2.588222e-01 9.659250e-01 0.000000e+00
      outer loop
         vertex 1.369096e+02 1.415165e+01 -2.225000e+01
         vertex 1.363371e+02 1.430504e+01 -6.705523e-07
         vertex 1.369096e+02 1.415165e+01 -6.705523e-07
      endloop
   endfacet
   facet normal 8.715323e-02 9.961949e-01 0.000000e+00
      outer loop
         vertex 1.369096e+02 1.415165e+01 -2.225000e+01
         vertex 1.369096e+02 1.415165e+01 -6.705523e-07
         vertex 1.375000e+02 1.410000e+01 -2.225000e+01
      endloop
   endfacet
   facet normal 8.715323e-02 9.961949e-01 0.000000e+00
      outer loop
         vertex 1.375000e+02 1.410000e+01 -2.225000e+01
         vertex 1.369096e+02 1.415165e+01 -6.705523e-07
         vertex 1.375000e+02 1.410000e+01 -6.705523e-07
      endloop
   endfacet
   facet normal -1.336752e-01 4.988826e-01 8.562985e-01
      outer loop
         vertex 3.500000e+01 1.750000e+01 -2.429293e+01
         vertex 3.559040e+01 1.415165e+01 -2.225000e+01
         vertex 3.616287e+01 1.430504e+01 -2.225000e+01
      endloop
   endfacet
   facet normal -4.501386e-02 5.145160e-01 8.562985e-01
      outer loop
         vertex 3.500000e+01 1.410000e+01 -2.225000e+01
         vertex 3.559040e+01 1.415165e+01 -2.225000e+01
         vertex 3.500000e+01 1.750000e+01 -2.429293e+01
      endloop
   endfacet
   facet normal -3.652078e-01 3.652070e-01 8.562985e-01
      outer loop
         vertex 3.500000e+01 1.750000e+01 -2.429293e+01
         vertex 3.718548e+01 1.489545e+01 -2.225000e+01
         vertex 3.760455e+01 1.531452e+01 -2.225000e+01
      endloop
   endfacet
   facet normal -2.962403e-01 4.230776e-01 8.562985e-01
      outer loop
         vertex 3.670000e+01 1.455551e+01 -2.225000e+01
         vertex 3.718548e+01 1.489545e+01 -2.225000e+01
         vertex 3.500000e+01 1.750000e+01 -2.429293e+01
      endloop
   endfacet
   facet normal -2.182749e-01 4.680909e-01 8.562984e-01
      outer loop
         vertex 3.616287e+01 1.430504e+01 -2.225000e+01
         vertex 3.670000e+01 1.455551e+01 -2.225000e+01
         vertex 3.500000e+01 1.750000e+01 -2.429293e+01
      endloop
   endfacet
   facet normal -4.988824e-01 1.336764e-01 8.562984e-01
      outer loop
         vertex 3.500000e+01 1.750000e+01 -2.429293e+01
         vertex 3.819495e+01 1.633713e+01 -2.225000e+01
         vertex 3.834835e+01 1.690960e+01 -2.225000e+01
      endloop
   endfacet
   facet normal -4.680920e-01 2.182723e-01 8.562985e-01
      outer loop
         vertex 3.794449e+01 1.580000e+01 -2.225000e+01
         vertex 3.819495e+01 1.633713e+01 -2.225000e+01
         vertex 3.500000e+01 1.750000e+01 -2.429293e+01
      endloop
   endfacet
   facet normal -4.230759e-01 2.962425e-01 8.562985e-01
      outer loop
         vertex 3.760455e+01 1.531452e+01 -2.225000e+01
         vertex 3.794449e+01 1.580000e+01 -2.225000e+01
         vertex 3.500000e+01 1.750000e+01 -2.429293e+01
      endloop
   endfacet
   facet normal -4.988824e-01 -1.336764e-01 8.562984e-01
      outer loop
         vertex 3.500000e+01 1.750000e+01 -2.429293e+01
         vertex 3.834835e+01 1.809040e+01 -2.225000e+01
         vertex 3.819495e+01 1.866287e+01 -2.225000e+01
      endloop
   endfacet
   facet normal -5.145158e-01 -4.501532e-02 8.562985e-01
      outer loop
         vertex 3.840000e+01 1.750000e+01 -2.225000e+01
         vertex 3.834835e+01 1.809040e+01 -2.225000e+01
         vertex 3.500000e+01 1.750000e+01 -2.429293e+01
      endloop
   endfacet
   facet normal -5.145158e-01 4.501532e-02 8.562985e-01
      outer loop
         vertex 3.834835e+01 1.690960e+01 -2.225000e+01
         vertex 3.840000e+01 1.750000e+01 -2.225000e+01
         vertex 3.500000e+01 1.750000e+01 -2.429293e+01
      endloop
   endfacet
   facet normal -3.652082e-01 -3.652066e-01 8.562985e-01
      outer loop
         vertex 3.500000e+01 1.750000e+01 -2.429293e+01
         vertex 3.760455e+01 1.968548e+01 -2.225000e+01
         vertex 3.718548e+01 2.010455e+01 -2.225000e+01
      endloop
   endfacet
   facet normal -4.230757e-01 -2.962429e-01 8.562985e-01
      outer loop
         vertex 3.794449e+01 1.920000e+01 -2.225000e+01
         vertex 3.760455e+01 1.968548e+01 -2.225000e+01
         vertex 3.500000e+01 1.750000e+01 -2.429293e+01
      endloop
   endfacet
   facet normal -4.680920e-01 -2.182723e-01 8.562985e-01
      outer loop
         vertex 3.819495e+01 1.866287e+01 -2.225000e+01
         vertex 3.794449e+01 1.920000e+01 -2.225000e+01
         vertex 3.500000e+01 1.750000e+01 -2.429293e+01
      endloop
   endfacet
   facet normal -1.336760e-01 -4.988825e-01 8.562984e-01
      outer loop
         vertex 3.500000e+01 1.750000e+01 -2.429293e+01
         vertex 3.616287e+01 2.069495e+01 -2.225000e+01
         vertex 3.559040e+01 2.084835e+01 -2.225000e+01
      endloop
   endfacet
   facet normal -2.182743e-01 -4.680912e-01 8.562984e-01
      outer loop
         vertex 3.670000e+01 2.044449e+01 -2.225000e+01
         vertex 3.616287e+01 2.069495e+01 -2.225000e+01
         vertex 3.500000e+01 1.750000e+01 -2.429293e+01
      endloop
   endfacet
   facet normal -2.962403e-01 -4.230776e-01 8.562985e-01
      outer loop
         vertex 3.718548e+01 2.010455e+01 -2.225000e+01
         vertex 3.670000e+01 2.044449e+01 -2.225000e+01
         vertex 3.500000e+01 1.750000e+01 -2.429293e+01
      endloop
   endfacet
   facet normal 1.336760e-01 -4.988825e-01 8.562984e-01
      outer loop
         vertex 3.500000e+01 1.750000e+01 -2.429293e+01
         vertex 3.440960e+01 2.084835e+01 -2.225000e+01
         vertex 3.383713e+01 2.069495e+01 -2.225000e+01
      endloop
   endfacet
   facet normal 4.501386e-02 -5.145160e-01 8.562985e-01
      outer loop
         vertex 3.500000e+01 2.090000e+01 -2.225000e+01
         vertex 3.440960e+01 2.084835e+01 -2.225000e+01
         vertex 3.500000e+01 1.750000e+01 -2.429293e+01
      endloop
   endfacet
   facet normal -4.501386e-02 -5.145160e-01 8.562985e-01
      outer loop
         vertex 3.559040e+01 2.084835e+01 -2.225000e+01
         vertex 3.500000e+01 2.090000e+01 -2.225000e+01
         vertex 3.500000e+01 1.750000e+01 -2.429293e+01
      endloop
   endfacet
   facet normal 3.652082e-01 -3.652066e-01 8.562985e-01
      outer loop
         vertex 3.500000e+01 1.750000e+01 -2.429293e+01
         vertex 3.281452e+01 2.010455e+01 -2.225000e+01
         vertex 3.239545e+01 1.968548e+01 -2.225000e+01
      endloop
   endfacet
   facet normal 2.962403e-01 -4.230776e-01 8.562985e-01
      outer loop
         vertex 3.330000e+01 2.044449e+01 -2.225000e+01
         vertex 3.281452e+01 2.010455e+01 -2.225000e+01
         vertex 3.500000e+01 1.750000e+01 -2.429293e+01
      endloop
   endfacet
   facet normal 2.182743e-01 -4.680912e-01 8.562984e-01
      outer loop
         vertex 3.383713e+01 2.069495e+01 -2.225000e+01
         vertex 3.330000e+01 2.044449e+01 -2.225000e+01
         vertex 3.500000e+01 1.750000e+01 -2.429293e+01
      endloop
   endfacet
   facet normal 4.988824e-01 -1.336764e-01 8.562984e-01
      outer loop
         vertex 3.500000e+01 1.750000e+01 -2.429293e+01
         vertex 3.180505e+01 1.866287e+01 -2.225000e+01
         vertex 3.165165e+01 1.809040e+01 -2.225000e+01
      endloop
   endfacet
   facet normal 4.680920e-01 -2.182723e-01 8.562985e-01
      outer loop
         vertex 3.205551e+01 1.920000e+01 -2.225000e+01
         vertex 3.180505e+01 1.866287e+01 -2.225000e+01
         vertex 3.500000e+01 1.750000e+01 -2.429293e+01
      endloop
   endfacet
   facet normal 4.230757e-01 -2.962429e-01 8.562985e-01
      outer loop
         vertex 3.239545e+01 1.968548e+01 -2.225000e+01
         vertex 3.205551e+01 1.920000e+01 -2.225000e+01
         vertex 3.500000e+01 1.750000e+01 -2.429293e+01
      endloop
   endfacet
   facet normal 4.988824e-01 1.336764e-01 8.562984e-01
      outer loop
         vertex 3.500000e+01 1.750000e+01 -2.429293e+01
         vertex 3.165165e+01 1.690960e+01 -2.225000e+01
         vertex 3.180505e+01 1.633713e+01 -2.225000e+01
      endloop
   endfacet
   facet normal 5.145158e-01 4.501532e-02 8.562985e-01
      outer loop
         vertex 3.160000e+01 1.750000e+01 -2.225000e+01
         vertex 3.165165e+01 1.690960e+01 -2.225000e+01
         vertex 3.500000e+01 1.750000e+01 -2.429293e+01
      endloop
   endfacet
   facet normal 5.145158e-01 -4.501532e-02 8.562985e-01
      outer loop
         vertex 3.165165e+01 1.809040e+01 -2.225000e+01
         vertex 3.160000e+01 1.750000e+01 -2.225000e+01
         vertex 3.500000e+01 1.750000e+01 -2.429293e+01
      endloop
   endfacet
   facet normal 3.652078e-01 3.652070e-01 8.562985e-01
      outer loop
         vertex 3.500000e+01 1.750000e+01 -2.429293e+01
         vertex 3.239545e+01 1.531452e+01 -2.225000e+01
         vertex 3.281452e+01 1.489545e+01 -2.225000e+01
      endloop
   endfacet
   facet normal 4.230759e-01 2.962425e-01 8.562985e-01
      outer loop
         vertex 3.205551e+01 1.580000e+01 -2.225000e+01
         vertex 3.239545e+01 1.531452e+01 -2.225000e+01
         vertex 3.500000e+01 1.750000e+01 -2.429293e+01
      endloop
   endfacet
   facet normal 4.680920e-01 2.182723e-01 8.562985e-01
      outer loop
         vertex 3.180505e+01 1.633713e+01 -2.225000e+01
         vertex 3.205551e+01 1.580000e+01 -2.225000e+01
         vertex 3.500000e+01 1.750000e+01 -2.429293e+01
      endloop
   endfacet
   facet normal 1.336752e-01 4.988826e-01 8.562985e-01
      outer loop
         vertex 3.500000e+01 1.750000e+01 -2.429293e+01
         vertex 3.383713e+01 1.430504e+01 -2.225000e+01
         vertex 3.440960e+01 1.415165e+01 -2.225000e+01
      endloop
   endfacet
   facet normal 2.182749e-01 4.680909e-01 8.562984e-01
      outer loop
         vertex 3.330000e+01 1.455551e+01 -2.225000e+01
         vertex 3.383713e+01 1.430504e+01 -2.225000e+01
         vertex 3.500000e+01 1.750000e+01 -2.429293e+01
      endloop
   endfacet
   facet normal 2.962403e-01 4.230776e-01 8.562985e-01
      outer loop
         vertex 3.281452e+01 1.489545e+01 -2.225000e+01
         vertex 3.330000e+01 1.455551e+01 -2.225000e+01
         vertex 3.500000e+01 1.750000e+01 -2.429293e+01
      endloop
   endfacet
   facet normal 4.501386e-02 5.145160e-01 8.562985e-01
      outer loop
         vertex 3.440960e+01 1.415165e+01 -2.225000e+01
         vertex 3.500000e+01 1.410000e+01 -2.225000e+01
         vertex 3.500000e+01 1.750000e+01 -2.429293e+01
      endloop
   endfacet
   facet normal -8.715486e-02 9.961948e-01 0.000000e+00
      outer loop
         vertex 3.500000e+01 1.410000e+01 -2.225000e+01
         vertex 3.500000e+01 1.410000e+01 -6.705523e-07
         vertex 3.559040e+01 1.415165e+01 -2.225000e+01
      endloop
   endfacet
   facet normal -8.715486e-02 9.961948e-01 0.000000e+00
      outer loop
         vertex 3.559040e+01 1.415165e+01 -2.225000e+01
         vertex 3.500000e+01 1.410000e+01 -6.705523e-07
         vertex 3.559040e+01 1.415165e+01 -6.705523e-07
      endloop
   endfacet
   facet normal -2.588190e-01 9.659258e-01 0.000000e+00
      outer loop
         vertex 3.559040e+01 1.415165e+01 -2.225000e+01
         vertex 3.559040e+01 1.415165e+01 -6.705523e-07
         vertex 3.616287e+01 1.430504e+01 -2.225000e+01
      endloop
   endfacet
   facet normal -2.588190e-01 9.659258e-01 0.000000e+00
      outer loop
         vertex 3.616287e+01 1.430504e+01 -2.225000e+01
         vertex 3.559040e+01 1.415165e+01 -6.705523e-07
         vertex 3.616287e+01 1.430504e+01 -6.705523e-07
      endloop
   endfacet
   facet normal -4.226192e-01 9.063074e-01 0.000000e+00
      outer loop
         vertex 3.616287e+01 1.430504e+01 -2.225000e+01
         vertex 3.616287e+01 1.430504e+01 -6.705523e-07
         vertex 3.670000e+01 1.455551e+01 -2.225000e+01
      endloop
   endfacet
   facet normal -4.226192e-01 9.063074e-01 0.000000e+00
      outer loop
         vertex 3.670000e+01 1.455551e+01 -2.225000e+01
         vertex 3.616287e+01 1.430504e+01 -6.705523e-07
         vertex 3.670000e+01 1.455551e+01 -6.705523e-07
      endloop
   endfacet
   facet normal -5.735741e-01 8.191537e-01 0.000000e+00
      outer loop
         vertex 3.670000e+01 1.455551e+01 -2.225000e+01
         vertex 3.670000e+01 1.455551e+01 -6.705523e-07
         vertex 3.718548e+01 1.489545e+01 -2.225000e+01
      endloop
   endfacet
   facet normal -5.735741e-01 8.191537e-01 0.000000e+00
      outer loop
         vertex 3.718548e+01 1.489545e+01 -2.225000e+01
         vertex 3.670000e+01 1.455551e+01 -6.705523e-07
         vertex 3.718548e+01 1.489545e+01 -6.705523e-07
      endloop
   endfacet
   facet normal -7.071076e-01 7.071060e-01 0.000000e+00
      outer loop
         vertex 3.718548e+01 1.489545e+01 -2.225000e+01
         vertex 3.718548e+01 1.489545e+01 -6.705523e-07
         vertex 3.760455e+01 1.531452e+01 -2.225000e+01
      endloop
   endfacet
   facet normal -7.071076e-01 7.071060e-01 0.000000e+00
      outer loop
         vertex 3.760455e+01 1.531452e+01 -2.225000e+01
         vertex 3.718548e+01 1.489545e+01 -6.705523e-07
         vertex 3.760455e+01 1.531452e+01 -6.705523e-07
      endloop
   endfacet
   facet normal -8.191506e-01 5.735785e-01 0.000000e+00
      outer loop
         vertex 3.760455e+01 1.531452e+01 -2.225000e+01
         vertex 3.760455e+01 1.531452e+01 -6.705523e-07
         vertex 3.794449e+01 1.580000e+01 -2.225000e+01
      endloop
   endfacet
   facet normal -8.191506e-01 5.735785e-01 0.000000e+00
      outer loop
         vertex 3.794449e+01 1.580000e+01 -2.225000e+01
         vertex 3.760455e+01 1.531452e+01 -6.705523e-07
         vertex 3.794449e+01 1.580000e+01 -6.705523e-07
      endloop
   endfacet
   facet normal -9.063097e-01 4.226141e-01 0.000000e+00
      outer loop
         vertex 3.794449e+01 1.580000e+01 -2.225000e+01
         vertex 3.794449e+01 1.580000e+01 -6.705523e-07
         vertex 3.819495e+01 1.633713e+01 -2.225000e+01
      endloop
   endfacet
   facet normal -9.063097e-01 4.226141e-01 0.000000e+00
      outer loop
         vertex 3.819495e+01 1.633713e+01 -2.225000e+01
         vertex 3.794449e+01 1.580000e+01 -6.705523e-07
         vertex 3.819495e+01 1.633713e+01 -6.705523e-07
      endloop
   endfacet
   facet normal -9.659252e-01 2.588213e-01 0.000000e+00
      outer loop
         vertex 3.819495e+01 1.633713e+01 -2.225000e+01
         vertex 3.819495e+01 1.633713e+01 -6.705523e-07
         vertex 3.834835e+01 1.690960e+01 -2.225000e+01
      endloop
   endfacet
   facet normal -9.659252e-01 2.588213e-01 0.000000e+00
      outer loop
         vertex 3.834835e+01 1.690960e+01 -2.225000e+01
         vertex 3.819495e+01 1.633713e+01 -6.705523e-07
         vertex 3.834835e+01 1.690960e+01 -6.705523e-07
      endloop
   endfacet
   facet normal -9.961945e-01 8.715771e-02 0.000000e+00
      outer loop
         vertex 3.834835e+01 1.690960e+01 -2.225000e+01
         vertex 3.834835e+01 1.690960e+01 -6.705523e-07
         vertex 3.840000e+01 1.750000e+01 -2.225000e+01
      endloop
   endfacet
   facet normal -9.961945e-01 8.715771e-02 0.000000e+00
      outer loop
         vertex 3.840000e+01 1.750000e+01 -2.225000e+01
         vertex 3.834835e+01 1.690960e+01 -6.705523e-07
         vertex 3.840000e+01 1.750000e+01 -6.705523e-07
      endloop
   endfacet
   facet normal -9.961945e-01 -8.715771e-02 0.000000e+00
      outer loop
         vertex 3.840000e+01 1.750000e+01 -2.225000e+01
         vertex 3.840000e+01 1.750000e+01 -6.705523e-07
         vertex 3.834835e+01 1.809040e+01 -2.225000e+01
      endloop
   endfacet
   facet normal -9.961945e-01 -8.715771e-02 0.000000e+00
      outer loop
         vertex 3.834835e+01 1.809040e+01 -2.225000e+01
         vertex 3.840000e+01 1.750000e+01 -6.705523e-07
         vertex 3.834835e+01 1.809040e+01 -6.705523e-07
      endloop
   endfacet
   facet normal -9.659252e-01 -2.588213e-01 0.000000e+00
      outer loop
         vertex 3.834835e+01 1.809040e+01 -2.225000e+01
         vertex 3.834835e+01 1.809040e+01 -6.705523e-07
         vertex 3.819495e+01 1.866287e+01 -2.225000e+01
      endloop
   endfacet
   facet normal -9.659252e-01 -2.588213e-01 0.000000e+00
      outer loop
         vertex 3.819495e+01 1.866287e+01 -2.225000e+01
         vertex 3.834835e+01 1.809040e+01 -6.705523e-07
         vertex 3.819495e+01 1.866287e+01 -6.705523e-07
      endloop
   endfacet
   facet normal -9.063097e-01 -4.226141e-01 0.000000e+00
      outer loop
         vertex 3.819495e+01 1.866287e+01 -2.225000e+01
         vertex 3.819495e+01 1.866287e+01 -6.705523e-07
         vertex 3.794449e+01 1.920000e+01 -2.225000e+01
      endloop
   endfacet
   facet normal -9.063097e-01 -4.226141e-01 0.000000e+00
      outer loop
         vertex 3.794449e+01 1.920000e+01 -2.225000e+01
         vertex 3.819495e+01 1.866287e+01 -6.705523e-07
         vertex 3.794449e+01 1.920000e+01 -6.705523e-07
      endloop
   endfacet
   facet normal -8.191501e-01 -5.735792e-01 0.000000e+00
      outer loop
         vertex 3.794449e+01 1.920000e+01 -2.225000e+01
         vertex 3.794449e+01 1.920000e+01 -6.705523e-07
         vertex 3.760455e+01 1.968548e+01 -2.225000e+01
      endloop
   endfacet
   facet normal -8.191501e-01 -5.735792e-01 0.000000e+00
      outer loop
         vertex 3.760455e+01 1.968548e+01 -2.225000e+01
         vertex 3.794449e+01 1.920000e+01 -6.705523e-07
         vertex 3.760455e+01 1.968548e+01 -6.705523e-07
      endloop
   endfacet
   facet normal -7.071084e-01 -7.071052e-01 0.000000e+00
      outer loop
         vertex 3.760455e+01 1.968548e+01 -2.225000e+01
         vertex 3.760455e+01 1.968548e+01 -6.705523e-07
         vertex 3.718548e+01 2.010455e+01 -2.225000e+01
      endloop
   endfacet
   facet normal -7.071084e-01 -7.071052e-01 0.000000e+00
      outer loop
         vertex 3.718548e+01 2.010455e+01 -2.225000e+01
         vertex 3.760455e+01 1.968548e+01 -6.705523e-07
         vertex 3.718548e+01 2.010455e+01 -6.705523e-07
      endloop
   endfacet
   facet normal -5.735741e-01 -8.191537e-01 0.000000e+00
      outer loop
         vertex 3.718548e+01 2.010455e+01 -2.225000e+01
         vertex 3.718548e+01 2.010455e+01 -6.705523e-07
         vertex 3.670000e+01 2.044449e+01 -2.225000e+01
      endloop
   endfacet
   facet normal -5.735741e-01 -8.191537e-01 0.000000e+00
      outer loop
         vertex 3.670000e+01 2.044449e+01 -2.225000e+01
         vertex 3.718548e+01 2.010455e+01 -6.705523e-07
         vertex 3.670000e+01 2.044449e+01 -6.705523e-07
      endloop
   endfacet
   facet normal -4.226179e-01 -9.063080e-01 0.000000e+00
      outer loop
         vertex 3.670000e+01 2.044449e+01 -2.225000e+01
         vertex 3.670000e+01 2.044449e+01 -6.705523e-07
         vertex 3.616287e+01 2.069495e+01 -2.225000e+01
      endloop
   endfacet
   facet normal -4.226179e-01 -9.063080e-01 0.000000e+00
      outer loop
         vertex 3.616287e+01 2.069495e+01 -2.225000e+01
         vertex 3.670000e+01 2.044449e+01 -6.705523e-07
         vertex 3.616287e+01 2.069495e+01 -6.705523e-07
      endloop
   endfacet
   facet normal -2.588205e-01 -9.659254e-01 0.000000e+00
      outer loop
         vertex 3.616287e+01 2.069495e+01 -2.225000e+01
         vertex 3.616287e+01 2.069495e+01 -6.705523e-07
         vertex 3.559040e+01 2.084835e+01 -2.225000e+01
      endloop
   endfacet
   facet normal -2.588205e-01 -9.659254e-01 0.000000e+00
      outer loop
         vertex 3.559040e+01 2.084835e+01 -2.225000e+01
         vertex 3.616287e+01 2.069495e+01 -6.705523e-07
         vertex 3.559040e+01 2.084835e+01 -6.705523e-07
      endloop
   endfacet
   facet normal -8.715486e-02 -9.961948e-01 0.000000e+00
      outer loop
         vertex 3.559040e+01 2.084835e+01 -2.225000e+01
         vertex 3.559040e+01 2.084835e+01 -6.705523e-07
         vertex 3.500000e+01 2.090000e+01 -2.225000e+01
      endloop
   endfacet
   facet normal -8.715486e-02 -9.961948e-01 0.000000e+00
      outer loop
         vertex 3.500000e+01 2.090000e+01 -2.225000e+01
         vertex 3.559040e+01 2.084835e+01 -6.705523e-07
         vertex 3.500000e+01 2.090000e+01 -6.705523e-07
      endloop
   endfacet
   facet normal 8.715486e-02 -9.961948e-01 0.000000e+00
      outer loop
         vertex 3.500000e+01 2.090000e+01 -2.225000e+01
         vertex 3.500000e+01 2.090000e+01 -6.705523e-07
         vertex 3.440960e+01 2.084835e+01 -2.225000e+01
      endloop
   endfacet
   facet normal 8.715486e-02 -9.961948e-01 0.000000e+00
      outer loop
         vertex 3.440960e+01 2.084835e+01 -2.225000e+01
         vertex 3.500000e+01 2.090000e+01 -6.705523e-07
         vertex 3.440960e+01 2.084835e+01 -6.705523e-07
      endloop
   endfacet
   facet normal 2.588205e-01 -9.659254e-01 0.000000e+00
      outer loop
         vertex 3.440960e+01 2.084835e+01 -2.225000e+01
         vertex 3.440960e+01 2.084835e+01 -6.705523e-07
         vertex 3.383713e+01 2.069495e+01 -2.225000e+01
      endloop
   endfacet
   facet normal 2.588205e-01 -9.659254e-01 0.000000e+00
      outer loop
         vertex 3.383713e+01 2.069495e+01 -2.225000e+01
         vertex 3.440960e+01 2.084835e+01 -6.705523e-07
         vertex 3.383713e+01 2.069495e+01 -6.705523e-07
      endloop
   endfacet
   facet normal 4.226179e-01 -9.063080e-01 0.000000e+00
      outer loop
         vertex 3.383713e+01 2.069495e+01 -2.225000e+01
         vertex 3.383713e+01 2.069495e+01 -6.705523e-07
         vertex 3.330000e+01 2.044449e+01 -2.225000e+01
      endloop
   endfacet
   facet normal 4.226179e-01 -9.063080e-01 0.000000e+00
      outer loop
         vertex 3.330000e+01 2.044449e+01 -2.225000e+01
         vertex 3.383713e+01 2.069495e+01 -6.705523e-07
         vertex 3.330000e+01 2.044449e+01 -6.705523e-07
      endloop
   endfacet
   facet normal 5.735741e-01 -8.191537e-01 0.000000e+00
      outer loop
         vertex 3.330000e+01 2.044449e+01 -2.225000e+01
         vertex 3.330000e+01 2.044449e+01 -6.705523e-07
         vertex 3.281452e+01 2.010455e+01 -2.225000e+01
      endloop
   endfacet
   facet normal 5.735741e-01 -8.191537e-01 0.000000e+00
      outer loop
         vertex 3.281452e+01 2.010455e+01 -2.225000e+01
         vertex 3.330000e+01 2.044449e+01 -6.705523e-07
         vertex 3.281452e+01 2.010455e+01 -6.705523e-07
      endloop
   endfacet
   facet normal 7.071084e-01 -7.071052e-01 0.000000e+00
      outer loop
         vertex 3.281452e+01 2.010455e+01 -2.225000e+01
         vertex 3.281452e+01 2.010455e+01 -6.705523e-07
         vertex 3.239545e+01 1.968548e+01 -2.225000e+01
      endloop
   endfacet
   facet normal 7.071084e-01 -7.071052e-01 0.000000e+00
      outer loop
         vertex 3.239545e+01 1.968548e+01 -2.225000e+01
         vertex 3.281452e+01 2.010455e+01 -6.705523e-07
         vertex 3.239545e+01 1.968548e+01 -6.705523e-07
      endloop
   endfacet
   facet normal 8.191501e-01 -5.735792e-01 0.000000e+00
      outer loop
         vertex 3.239545e+01 1.968548e+01 -2.225000e+01
         vertex 3.239545e+01 1.968548e+01 -6.705523e-07
         vertex 3.205551e+01 1.920000e+01 -2.225000e+01
      endloop
   endfacet
   facet normal 8.191501e-01 -5.735792e-01 0.000000e+00
      outer loop
         vertex 3.205551e+01 1.920000e+01 -2.225000e+01
         vertex 3.239545e+01 1.968548e+01 -6.705523e-07
         vertex 3.205551e+01 1.920000e+01 -6.705523e-07
      endloop
   endfacet
   facet normal 9.063097e-01 -4.226141e-01 0.000000e+00
      outer loop
         vertex 3.205551e+01 1.920000e+01 -2.225000e+01
         vertex 3.205551e+01 1.920000e+01 -6.705523e-07
         vertex 3.180505e+01 1.866287e+01 -2.225000e+01
      endloop
   endfacet
   facet normal 9.063097e-01 -4.226141e-01 0.000000e+00
      outer loop
         vertex 3.180505e+01 1.866287e+01 -2.225000e+01
         vertex 3.205551e+01 1.920000e+01 -6.705523e-07
         vertex 3.180505e+01 1.866287e+01 -6.705523e-07
      endloop
   endfacet
   facet normal 9.659252e-01 -2.588213e-01 0.000000e+00
      outer loop
         vertex 3.180505e+01 1.866287e+01 -2.225000e+01
         vertex 3.180505e+01 1.866287e+01 -6.705523e-07
         vertex 3.165165e+01 1.809040e+01 -2.225000e+01
      endloop
   endfacet
   facet normal 9.659252e-01 -2.588213e-01 0.000000e+00
      outer loop
         vertex 3.165165e+01 1.809040e+01 -2.225000e+01
         vertex 3.180505e+01 1.866287e+01 -6.705523e-07
         vertex 3.165165e+01 1.809040e+01 -6.705523e-07
      endloop
   endfacet
   facet normal 9.961945e-01 -8.715771e-02 0.000000e+00
      outer loop
         vertex 3.165165e+01 1.809040e+01 -2.225000e+01
         vertex 3.165165e+01 1.809040e+01 -6.705523e-07
         vertex 3.160000e+01 1.750000e+01 -2.225000e+01
      endloop
   endfacet
   facet normal 9.961945e-01 -8.715771e-02 0.000000e+00
      outer loop
         vertex 3.160000e+01 1.750000e+01 -2.225000e+01
         vertex 3.165165e+01 1.809040e+01 -6.705523e-07
         vertex 3.160000e+01 1.750000e+01 -6.705523e-07
      endloop
   endfacet
   facet normal 9.961945e-01 8.715771e-02 0.000000e+00
      outer loop
         vertex 3.160000e+01 1.750000e+01 -2.225000e+01
         vertex 3.160000e+01 1.750000e+01 -6.705523e-07
         vertex 3.165165e+01 1.690960e+01 -2.225000e+01
      endloop
   endfacet
   facet normal 9.961945e-01 8.715771e-02 0.000000e+00
      outer loop
         vertex 3.165165e+01 1.690960e+01 -2.225000e+01
         vertex 3.160000e+01 1.750000e+01 -6.705523e-07
         vertex 3.165165e+01 1.690960e+01 -6.705523e-07
      endloop
   endfacet
   facet normal 9.659252e-01 2.588213e-01 0.000000e+00
      outer loop
         vertex 3.165165e+01 1.690960e+01 -2.225000e+01
         vertex 3.165165e+01 1.690960e+01 -6.705523e-07
         vertex 3.180505e+01 1.633713e+01 -2.225000e+01
      endloop
   endfacet
   facet normal 9.659252e-01 2.588213e-01 0.000000e+00
      outer loop
         vertex 3.180505e+01 1.633713e+01 -2.225000e+01
         vertex 3.165165e+01 1.690960e+01 -6.705523e-07
         vertex 3.180505e+01 1.633713e+01 -6.705523e-07
      endloop
   endfacet
   facet normal 9.063097e-01 4.226141e-01 0.000000e+00
      outer loop
         vertex 3.180505e+01 1.633713e+01 -2.225000e+01
         vertex 3.180505e+01 1.633713e+01 -6.705523e-07
         vertex 3.205551e+01 1.580000e+01 -2.225000e+01
      endloop
   endfacet
   facet normal 9.063097e-01 4.226141e-01 0.000000e+00
      outer loop
         vertex 3.205551e+01 1.580000e+01 -2.225000e+01
         vertex 3.180505e+01 1.633713e+01 -6.705523e-07
         vertex 3.205551e+01 1.580000e+01 -6.705523e-07
      endloop
   endfacet
   facet normal 8.191506e-01 5.735785e-01 0.000000e+00
      outer loop
         vertex 3.205551e+01 1.580000e+01 -2.225000e+01
         vertex 3.205551e+01 1.580000e+01 -6.705523e-07
         vertex 3.239545e+01 1.531452e+01 -2.225000e+01
      endloop
   endfacet
   facet normal 8.191506e-01 5.735785e-01 0.000000e+00
      outer loop
         vertex 3.239545e+01 1.531452e+01 -2.225000e+01
         vertex 3.205551e+01 1.580000e+01 -6.705523e-07
         vertex 3.239545e+01 1.531452e+01 -6.705523e-07
      endloop
   endfacet
   facet normal 7.071076e-01 7.071060e-01 0.000000e+00
      outer loop
         vertex 3.239545e+01 1.531452e+01 -2.225000e+01
         vertex 3.239545e+01 1.531452e+01 -6.705523e-07
         vertex 3.281452e+01 1.489545e+01 -2.225000e+01
      endloop
   endfacet
   facet normal 7.071076e-01 7.071060e-01 0.000000e+00
      outer loop
         vertex 3.281452e+01 1.489545e+01 -2.225000e+01
         vertex 3.239545e+01 1.531452e+01 -6.705523e-07
         vertex 3.281452e+01 1.489545e+01 -6.705523e-07
      endloop
   endfacet
   facet normal 5.735741e-01 8.191537e-01 0.000000e+00
      outer loop
         vertex 3.281452e+01 1.489545e+01 -2.225000e+01
         vertex 3.281452e+01 1.489545e+01 -6.705523e-07
         vertex 3.330000e+01 1.455551e+01 -2.225000e+01
      endloop
   endfacet
   facet normal 5.735741e-01 8.191537e-01 0.000000e+00
      outer loop
         vertex 3.330000e+01 1.455551e+01 -2.225000e+01
         vertex 3.281452e+01 1.489545e+01 -6.705523e-07
         vertex 3.330000e+01 1.455551e+01 -6.705523e-07
      endloop
   endfacet
   facet normal 4.226192e-01 9.063074e-01 0.000000e+00
      outer loop
         vertex 3.330000e+01 1.455551e+01 -2.225000e+01
         vertex 3.330000e+01 1.455551e+01 -6.705523e-07
         vertex 3.383713e+01 1.430504e+01 -2.225000e+01
      endloop
   endfacet
   facet normal 4.226192e-01 9.063074e-01 0.000000e+00
      outer loop
         vertex 3.383713e+01 1.430504e+01 -2.225000e+01
         vertex 3.330000e+01 1.455551e+01 -6.705523e-07
         vertex 3.383713e+01 1.430504e+01 -6.705523e-07
      endloop
   endfacet
   facet normal 2.588190e-01 9.659258e-01 0.000000e+00
      outer loop
         vertex 3.383713e+01 1.430504e+01 -2.225000e+01
         vertex 3.383713e+01 1.430504e+01 -6.705523e-07
         vertex 3.440960e+01 1.415165e+01 -2.225000e+01
      endloop
   endfacet
   facet normal 2.588190e-01 9.659258e-01 0.000000e+00
      outer loop
         vertex 3.440960e+01 1.415165e+01 -2.225000e+01
         vertex 3.383713e+01 1.430504e+01 -6.705523e-07
         vertex 3.440960e+01 1.415165e+01 -6.705523e-07
      endloop
   endfacet
   facet normal 8.715486e-02 9.961948e-01 0.000000e+00
      outer loop
         vertex 3.440960e+01 1.415165e+01 -2.225000e+01
         vertex 3.440960e+01 1.415165e+01 -6.705523e-07
         vertex 3.500000e+01 1.410000e+01 -2.225000e+01
      endloop
   endfacet
   facet normal 8.715486e-02 9.961948e-01 0.000000e+00
      outer loop
         vertex 3.500000e+01 1.410000e+01 -2.225000e+01
         vertex 3.440960e+01 1.415165e+01 -6.705523e-07
         vertex 3.500000e+01 1.410000e+01 -6.705523e-07
      endloop
   endfacet
endsolid Paralelipipedo